# xmcd
#
# Track frame offsets:
#	150
#	15236
#	32928
#	46666
#	63497
#	80514
#	95807
#	112161
#	128911
#	145995
#	160054
#	175473
#	189704
#	203751
#	220997
#	237259
#	246967
#
# Disc length: 3526 seconds
#
# Revision: 1
# Processed by: cddbd v1.5.2PL0 Copyright (c) Steve Scherf et al.
# Submitted via: audiograbber 1.83.01
#
DISCID=f60dc411
DTITLE=CDX - 477
DYEAR=2009
DGENRE=Country
TTITLE0=Steve Holy - Baby Don't Go
TTITLE1=Phil Vassar - Bobbi With An I
TTITLE2=Ray Stevens - If 10 percent Is Good Enough For Jesus
TTITLE3=Star De Azlan - Like A Rose
TTITLE4=George Strait - Living For The Night
TTITLE5=Montgomery Gentry - Long Line Of Losers
TTITLE6=Sarah Buxton - Outside My Window
TTITLE7=Eli Young Band - Radio Waves
TTITLE8=Bellamy Brothers w Bacon Brothers - Guilty Of The Crime
TTITLE9=Hoyt Hughes - Ain't My Day To Save The World
TTITLE10=Song Trust - Choose Me
TTITLE11=Jeff Griffith - Dip Me In Beer and Throw Me To The Drunk Chicks
TTITLE12=Vince Hatfield - I'm Gonna Let You Down
TTITLE13=Stephanie Williams - It Reminds Me Of You
TTITLE14=Chris Hanners - It's My Lie (Let Me Live It)
TTITLE15=John Long - I Wish I Had A Job To Shove
TTITLE16=Jeremy Crady - The Toughest Ride
EXTD=
EXTT0=
EXTT1=
EXTT2=
EXTT3=
EXTT4=
EXTT5=
EXTT6=
EXTT7=
EXTT8=
EXTT9=
EXTT10=
EXTT11=
EXTT12=
EXTT13=
EXTT14=
EXTT15=
EXTT16=
PLAYORDER=
